<svg xmlns="http://www.w3.org/2000/svg"><path d="M6.104.078H0v14.087h6.104c4 0 6.417-2.66 6.417-7.122 0-4.226-2.504-6.965-6.417-6.965zm-.235 11.27H3.287V2.974h2.035c2.66 0 3.835 1.33 3.835 4.383 0 3.6-2.27 4-3.287 4zM35.374 0c-.783 0-1.487.626-1.487 1.4s.626 1.4 1.487 1.4c.783 0 1.487-.626 1.487-1.4S36.156 0 35.374 0zm1.408 4h-2.896v10.252h2.896V4zm8.298 1.176c-.626-1.017-1.565-1.487-2.974-1.487-3.052 0-4.383 2.66-4.383 5.087 0 3.2 1.643 5.165 4.383 5.165 1.33 0 2.426-.548 2.974-1.4v1.096c0 .783-.235 1.4-.626 1.878-.4.4-.86.548-1.565.548-1.017 0-1.644-.4-1.878-1.096h-2.974C38.27 17.06 40.462 18 42.497 18c4.383 0 5.322-2.504 5.322-4.54V4H45v1.174h.078zM42.8 11.66c-2.035 0-2.2-2.27-2.2-2.974 0-1.33.548-2.817 2.2-2.817 1.878 0 2.27 1.643 2.27 3.052s-.704 2.74-2.27 2.74zm33.27-7.98c-1.33 0-2.348.47-2.974 1.4V3.992H70.28v13.774h2.896V13.07c.626.86 1.8 1.4 2.974 1.4 3.13 0 4.54-2.74 4.54-5.322.078-2.504-1.174-5.478-4.617-5.478zm-.548 8.53c-2.113 0-2.348-2.2-2.348-3.13s.235-3.2 2.348-3.2c1.722 0 2.348 1.643 2.348 3.2 0 1.174-.313 3.13-2.348 3.13zm9-8.22h-2.896v10.252h2.896V4zm-1.41-4c-.783 0-1.487.626-1.487 1.4s.626 1.4 1.487 1.4c.783 0 1.487-.626 1.487-1.4S83.897 0 83.114 0zm9.468 7.044V3.757h-.078c-.235-.078-.47-.078-.626-.078-1.33 0-2.504.86-3.2 2.035V3.992h-2.74v10.252h2.896V9.86c0-1.957.86-2.974 2.66-2.974.313 0 .704.078 1.017.157h.078zm9.548 4.852V6.73c0-2.035-1.487-3.052-4.54-3.052-2.2 0-4.383.783-4.54 3.365V7.2h2.817v-.078c.078-1.017.548-1.487 1.643-1.487 1.017 0 1.644.235 1.644 1.252 0 .86-1.017 1.017-2.348 1.096-.313 0-.626.078-.86.078-1.722.235-3.522.783-3.522 3.13 0 1.878 1.33 3.13 3.522 3.13 1.33 0 2.504-.4 3.365-1.174 0 .235.078.548.157.86v.078h2.974l-.078-.157c-.157-.235-.235-1.017-.235-2.035zm-2.974-1.644c0 1.487-.704 2.27-2.2 2.27-1.096 0-1.644-.4-1.644-1.174 0-.86.626-1.174 1.565-1.4.235 0 .47-.078.626-.078.626-.078 1.174-.157 1.565-.4v.783h.078zm8.06-9.312h-2.896v3.052h-1.643v2.035h1.643v5.87c0 2.2 1.722 2.504 3.287 2.504l1.644-.078h.078v-2.348h-.078c-.235.078-.548.078-.86.078-.86 0-1.096-.235-1.096-1.096v-5h2.035V3.992h-2.113V.94zm4.46-.94c-.782 0-1.487.626-1.487 1.4s.626 1.4 1.487 1.4c.783 0 1.487-.626 1.487-1.4-.078-.783-.704-1.4-1.487-1.4zm1.41 4h-2.896v10.252h2.896V4zm6.183-.3c-3.2 0-5.322 2.113-5.322 5.4s2.113 5.4 5.322 5.4 5.322-2.113 5.322-5.4-2.113-5.4-5.322-5.4zm0 8.53c-2.035 0-2.348-1.957-2.348-3.13s.313-3.13 2.348-3.13 2.348 1.957 2.348 3.13-.313 3.13-2.348 3.13zm11.974-8.532c-1.252 0-2.426.626-3.052 1.565V4h-2.74v10.252h2.896V8.53c0-1.643.626-2.504 1.956-2.504 1.174 0 1.8.704 1.8 2.426v5.8h2.974v-6.26c0-2.2-.704-4.383-3.835-4.304zm-76.148 0c-1.252 0-2.426.626-3.052 1.565V4h-2.74v10.252H52.2V8.53c0-1.643.626-2.504 1.957-2.504 1.174 0 1.8.704 1.8 2.426v5.8h2.974v-6.26c0-2.2-.704-4.383-3.835-4.304zm10.956 4.305c-.235-.078-.548-.078-.783-.157-1.252-.235-2.348-.47-2.348-1.252s.94-.86 1.487-.86c1.174 0 1.722.47 1.8 1.33v.078h2.817v-.078c-.235-2.74-2.583-3.287-4.54-3.287-.94 0-2.66.157-3.678 1.174-.548.548-.783 1.252-.704 2.113.078 1.878 1.956 2.504 3.444 2.817 1.956.4 2.896.626 2.896 1.4 0 .86-.94 1.174-1.722 1.174-1.174 0-1.956-.548-2.035-1.487v-.078H59.87v.078c.157 2.2 1.957 3.444 4.774 3.444 1.4 0 4.696-.313 4.696-3.6-.078-1.8-1.644-2.426-3.287-2.817zm-36.312 0c-.235-.078-.548-.078-.783-.157-1.252-.235-2.348-.47-2.348-1.252s.94-.86 1.487-.86c1.174 0 1.722.47 1.8 1.33v.078h2.817v-.078c-.235-2.74-2.583-3.287-4.54-3.287-.94 0-2.66.157-3.678 1.174-.548.548-.783 1.252-.704 2.113.078 1.878 1.957 2.504 3.443 2.817 1.957.4 2.896.626 2.896 1.4 0 .86-.94 1.174-1.722 1.174-1.174 0-1.957-.548-2.035-1.487v-.078H23.48v.078c.157 2.2 1.956 3.444 4.774 3.444 1.4 0 4.696-.313 4.696-3.6.078-1.8-1.565-2.426-3.2-2.817zM18.236 3.68c-3.052 0-5.244 2.27-5.244 5.4 0 3.2 2.113 5.4 5.244 5.4 2.426 0 4.07-1.174 4.774-3.443v-.078h-2.583v.078c-.157.626-1.096 1.252-2.113 1.252-1.487 0-2.27-.783-2.426-2.426h7.278v-.078c.078-1.8-.4-3.522-1.487-4.617-.783-1.017-2.035-1.487-3.443-1.487zm-2.27 4.226c.078-.783.626-1.957 2.2-1.957 1.487 0 1.957 1.096 2.113 1.957h-4.304z"></path></svg>